<svg xmlns="http://www.w3.org/2000/svg" viewBox="0 0 200 170"><path d="M89.1 9.2L12.7 40.4C9.5 41.7 9.5 46.3 12.7 47.6l76.8 31c6.7 2.7 14.1 2.7 20.8 0l76.8-31c3.2-1.3 3.2-5.9 0-7.2L110.3 9.2C103.6 6.5 95.9 6.5 89.1 9.2z" fill="#FCB400"/><path d="M105.9 92.1V167c0 3.6 3.7 6 7 4.6l85.8-34.2c2-.8 3.3-2.7 3.3-4.8V57.4c0-3.6-3.7-6-7-4.6L109 86.9c-1.9.8-3.1 2.7-3.1 5.2z" fill="#18BFFF"/><path d="M86.5 95.8l-24.8 11.9L58 109.5 10.6 131c-3.4 1.6-7.2-.9-7.2-4.6V57.4c0-2.1 1.3-3.9 3.1-4.7.4-.2.8-.3 1.2-.4.5-.1 1-.1 1.5 0l.7.2 75.4 36.5c2.4 1.2 3.8 3.5 3.5 5.8-.1.4-.2.7-.3 1z" fill="#F82B60"/><path d="M86.5 95.8l-24.8 11.9-60-36.4c.4-.2.8-.3 1.2-.4L86.8 94.8c-.1.4-.2.7-.3 1z" fill="#000" fill-opacity=".1"/></svg>