<svg xmlns="http://www.w3.org/2000/svg" viewBox="0 0 109.5 124.5"><path d="M74.7 14.8s-.4 0-.9.1c-.5-1.4-1.3-2.7-2.3-3.8-3.4-3.7-8.4-5.5-13.2-4.3-.4-.5-.8-1-1.3-1.4C54.2 2.6 50.5 1 46.8 1c-7 0-10.3 5.2-11.4 10.4-.3.1-.6.2-.9.2L24 14.5c-.3.1-.5.4-.5.7l-6.9 94.5c-.1.6.3 1.1.9 1.2l63.3 6.7c.6.1 1.1-.4 1.1-1l-7.2-101c0-.5-.5-.8-1-.8zm-14.4-4.1c-3.4.7-6.9.4-10.1-.9 1-4.1 3.5-8.5 8-8.5 3 0 4.8 1.4 6 3zm-5.4 7.5c-4.6.9-9.4.4-13.7-1.5 1.4-5.6 4.8-11.6 10.9-11.6 4.1 0 6.6 1.9 8.2 4.1-1.5 2.2-3.8 7.4-5.4 9z" fill="#95BF47"/><path d="M96.1 24.2c-.7-.1-13.4-1-13.4-1s-8.9-8.8-9.8-9.7c-.9-.9-2.7-.6-3.4-.4l-4.7 1.5c-2.8-8.1-7.7-15.6-16.4-15.6-.2 0-.5 0-.7 0C45.1.7 42.7-.6 40.4-.6c-17.3 0-25.6 21.6-28.2 32.6l-12 3.7c-3.7 1.2-3.8 1.3-4.3 4.8L-.1 119.4 74.7 133l40.1-8.6L96.1 24.2zM66.5 16.7l-7.6 2.3c0-.3 0-.7 0-1 0-4.6-.6-8.3-1.8-11.2 4.4.6 7.3 5.5 9.4 9.9zm-16.1-11c1.2 3.1 2 7.4 2 13.3 0 .3 0 .6 0 .9l-16.2 5c3.1-11.9 9-17.7 14.2-19.2zm-7.8-2.2c.8 0 1.6.3 2.3.7-8.3 3.9-17.2 13.8-20.9 33.5l-15.8 4.9c4.4-14.9 14.9-39.1 34.4-39.1z" fill="#5E8E3E"/></svg>